<!DOCTYPE svg PUBLIC "-//W3C//DTD SVG 1.1//EN" "http://www.w3.org/Graphics/SVG/1.1/DTD/svg11.dtd">
<!-- Uploaded to: SVG Repo, www.svgrepo.com, Transformed by: SVG Repo Mixer Tools -->
<svg fill="#9fd3c7" height="800px" width="800px" version="1.1" id="Layer_1" xmlns="http://www.w3.org/2000/svg" xmlns:xlink="http://www.w3.org/1999/xlink" viewBox="0 0 512 512" xml:space="preserve" transform="matrix(-1, 0, 0, 1, 0, 0)" stroke="#9fd3c7">
<g id="SVGRepo_bgCarrier" stroke-width="0"/>
<g id="SVGRepo_tracerCarrier" stroke-linecap="round" stroke-linejoin="round"/>
<g id="SVGRepo_iconCarrier"> <g> <g> <path d="M437.333,0H74.667C33.493,0,0,33.493,0,74.667v256c0,41.173,33.493,74.667,74.667,74.667h32v96 c0,4.139,2.389,7.915,6.144,9.664c1.429,0.683,2.987,1.003,4.523,1.003c2.453,0,4.885-0.853,6.827-2.475l125.013-104.192h188.16 c41.173,0,74.667-33.493,74.667-74.667v-256C512,33.493,478.507,0,437.333,0z"/> </g> </g> </g>
</svg>